<?xml version="1.0" encoding="UTF-8" ?>
<svg version="1.1" width="14" height="24" xmlns="http://www.w3.org/2000/svg" shape-rendering="crispEdges">
<rect x="2" y="0" width="1" height="1" fill="#6A2808" />
<rect x="3" y="0" width="1" height="1" fill="#6A2808" />
<rect x="6" y="0" width="1" height="1" fill="#6A2808" />
<rect x="7" y="0" width="1" height="1" fill="#6A2808" />
<rect x="10" y="0" width="1" height="1" fill="#6A2808" />
<rect x="11" y="0" width="1" height="1" fill="#6A2808" />
<rect x="2" y="1" width="1" height="1" fill="#6A2808" />
<rect x="3" y="1" width="1" height="1" fill="#D58920" />
<rect x="4" y="1" width="1" height="1" fill="#6A2808" />
<rect x="5" y="1" width="1" height="1" fill="#6A2808" />
<rect x="6" y="1" width="1" height="1" fill="#F6EEDE" />
<rect x="7" y="1" width="1" height="1" fill="#F6EEDE" />
<rect x="8" y="1" width="1" height="1" fill="#6A2808" />
<rect x="9" y="1" width="1" height="1" fill="#6A2808" />
<rect x="10" y="1" width="1" height="1" fill="#D58920" />
<rect x="11" y="1" width="1" height="1" fill="#6A2808" />
<rect x="2" y="2" width="1" height="1" fill="#6A2808" />
<rect x="3" y="2" width="1" height="1" fill="#D58920" />
<rect x="4" y="2" width="1" height="1" fill="#D58920" />
<rect x="5" y="2" width="1" height="1" fill="#6A2808" />
<rect x="6" y="2" width="1" height="1" fill="#6A2808" />
<rect x="7" y="2" width="1" height="1" fill="#6A2808" />
<rect x="8" y="2" width="1" height="1" fill="#6A2808" />
<rect x="9" y="2" width="1" height="1" fill="#D58920" />
<rect x="10" y="2" width="1" height="1" fill="#D58920" />
<rect x="11" y="2" width="1" height="1" fill="#6A2808" />
<rect x="1" y="3" width="1" height="1" fill="#6A2808" />
<rect x="2" y="3" width="1" height="1" fill="#DEAA5A" />
<rect x="3" y="3" width="1" height="1" fill="#D58920" />
<rect x="4" y="3" width="1" height="1" fill="#D58920" />
<rect x="5" y="3" width="1" height="1" fill="#B47D31" />
<rect x="6" y="3" width="1" height="1" fill="#B47D31" />
<rect x="7" y="3" width="1" height="1" fill="#B47D31" />
<rect x="8" y="3" width="1" height="1" fill="#B47D31" />
<rect x="9" y="3" width="1" height="1" fill="#D58920" />
<rect x="10" y="3" width="1" height="1" fill="#D58920" />
<rect x="11" y="3" width="1" height="1" fill="#DEAA5A" />
<rect x="12" y="3" width="1" height="1" fill="#6A2808" />
<rect x="1" y="4" width="1" height="1" fill="#6A2808" />
<rect x="2" y="4" width="1" height="1" fill="#D58920" />
<rect x="3" y="4" width="1" height="1" fill="#D58920" />
<rect x="4" y="4" width="1" height="1" fill="#F6EEDE" />
<rect x="5" y="4" width="1" height="1" fill="#D58920" />
<rect x="6" y="4" width="1" height="1" fill="#D58920" />
<rect x="7" y="4" width="1" height="1" fill="#D58920" />
<rect x="8" y="4" width="1" height="1" fill="#D58920" />
<rect x="9" y="4" width="1" height="1" fill="#F6EEDE" />
<rect x="10" y="4" width="1" height="1" fill="#D58920" />
<rect x="11" y="4" width="1" height="1" fill="#D58920" />
<rect x="12" y="4" width="1" height="1" fill="#6A2808" />
<rect x="0" y="5" width="1" height="1" fill="#6A2808" />
<rect x="1" y="5" width="1" height="1" fill="#CD954A" />
<rect x="2" y="5" width="1" height="1" fill="#EEBE5A" />
<rect x="3" y="5" width="1" height="1" fill="#EEBE5A" />
<rect x="4" y="5" width="1" height="1" fill="#946518" />
<rect x="5" y="5" width="1" height="1" fill="#946518" />
<rect x="6" y="5" width="1" height="1" fill="#D58920" />
<rect x="7" y="5" width="1" height="1" fill="#D58920" />
<rect x="8" y="5" width="1" height="1" fill="#946518" />
<rect x="9" y="5" width="1" height="1" fill="#946518" />
<rect x="10" y="5" width="1" height="1" fill="#EEBE5A" />
<rect x="11" y="5" width="1" height="1" fill="#EEBE5A" />
<rect x="12" y="5" width="1" height="1" fill="#CD954A" />
<rect x="13" y="5" width="1" height="1" fill="#6A2808" />
<rect x="0" y="6" width="1" height="1" fill="#6A2808" />
<rect x="1" y="6" width="1" height="1" fill="#E6B65A" />
<rect x="2" y="6" width="1" height="1" fill="#F6E6BD" />
<rect x="3" y="6" width="1" height="1" fill="#EEBE5A" />
<rect x="4" y="6" width="1" height="1" fill="#622408" />
<rect x="5" y="6" width="1" height="1" fill="#622408" />
<rect x="6" y="6" width="1" height="1" fill="#D58920" />
<rect x="7" y="6" width="1" height="1" fill="#D58920" />
<rect x="8" y="6" width="1" height="1" fill="#622408" />
<rect x="9" y="6" width="1" height="1" fill="#622408" />
<rect x="10" y="6" width="1" height="1" fill="#EEBE5A" />
<rect x="11" y="6" width="1" height="1" fill="#F6E6BD" />
<rect x="12" y="6" width="1" height="1" fill="#E6B65A" />
<rect x="13" y="6" width="1" height="1" fill="#6A2808" />
<rect x="0" y="7" width="1" height="1" fill="#6A2808" />
<rect x="1" y="7" width="1" height="1" fill="#E6B65A" />
<rect x="2" y="7" width="1" height="1" fill="#F6E6BD" />
<rect x="3" y="7" width="1" height="1" fill="#EEBE5A" />
<rect x="4" y="7" width="1" height="1" fill="#D5A141" />
<rect x="5" y="7" width="1" height="1" fill="#D5A141" />
<rect x="6" y="7" width="1" height="1" fill="#D58920" />
<rect x="7" y="7" width="1" height="1" fill="#D58920" />
<rect x="8" y="7" width="1" height="1" fill="#D5A141" />
<rect x="9" y="7" width="1" height="1" fill="#D5A141" />
<rect x="10" y="7" width="1" height="1" fill="#EEBE5A" />
<rect x="11" y="7" width="1" height="1" fill="#F6E6BD" />
<rect x="12" y="7" width="1" height="1" fill="#E6B65A" />
<rect x="13" y="7" width="1" height="1" fill="#6A2808" />
<rect x="0" y="8" width="1" height="1" fill="#6A2808" />
<rect x="1" y="8" width="1" height="1" fill="#F6E6BD" />
<rect x="2" y="8" width="1" height="1" fill="#F6E6BD" />
<rect x="3" y="8" width="1" height="1" fill="#EED6A4" />
<rect x="4" y="8" width="1" height="1" fill="#E6B65A" />
<rect x="5" y="8" width="1" height="1" fill="#E6B65A" />
<rect x="6" y="8" width="1" height="1" fill="#394431" />
<rect x="7" y="8" width="1" height="1" fill="#394431" />
<rect x="8" y="8" width="1" height="1" fill="#E6B65A" />
<rect x="9" y="8" width="1" height="1" fill="#E6B65A" />
<rect x="10" y="8" width="1" height="1" fill="#EED6A4" />
<rect x="11" y="8" width="1" height="1" fill="#F6E6BD" />
<rect x="12" y="8" width="1" height="1" fill="#F6E6BD" />
<rect x="13" y="8" width="1" height="1" fill="#6A2808" />
<rect x="1" y="9" width="1" height="1" fill="#6A2808" />
<rect x="2" y="9" width="1" height="1" fill="#F6E6BD" />
<rect x="3" y="9" width="1" height="1" fill="#DECEB4" />
<rect x="4" y="9" width="1" height="1" fill="#CDB27B" />
<rect x="5" y="9" width="1" height="1" fill="#394431" />
<rect x="6" y="9" width="1" height="1" fill="#102420" />
<rect x="7" y="9" width="1" height="1" fill="#102420" />
<rect x="8" y="9" width="1" height="1" fill="#394431" />
<rect x="9" y="9" width="1" height="1" fill="#CDB27B" />
<rect x="10" y="9" width="1" height="1" fill="#DECEB4" />
<rect x="11" y="9" width="1" height="1" fill="#F6E6BD" />
<rect x="12" y="9" width="1" height="1" fill="#6A2808" />
<rect x="1" y="10" width="1" height="1" fill="#6A2808" />
<rect x="2" y="10" width="1" height="1" fill="#6A2808" />
<rect x="3" y="10" width="1" height="1" fill="#DECEB4" />
<rect x="4" y="10" width="1" height="1" fill="#CDB27B" />
<rect x="5" y="10" width="1" height="1" fill="#C59D83" />
<rect x="6" y="10" width="1" height="1" fill="#AC2408" />
<rect x="7" y="10" width="1" height="1" fill="#AC2408" />
<rect x="8" y="10" width="1" height="1" fill="#C59D83" />
<rect x="9" y="10" width="1" height="1" fill="#CDB27B" />
<rect x="10" y="10" width="1" height="1" fill="#DECEB4" />
<rect x="11" y="10" width="1" height="1" fill="#6A2808" />
<rect x="12" y="10" width="1" height="1" fill="#6A2808" />
<rect x="1" y="11" width="1" height="1" fill="#6A2808" />
<rect x="2" y="11" width="1" height="1" fill="#8B6520" />
<rect x="3" y="11" width="1" height="1" fill="#6A2808" />
<rect x="4" y="11" width="1" height="1" fill="#6A2808" />
<rect x="5" y="11" width="1" height="1" fill="#C59D83" />
<rect x="6" y="11" width="1" height="1" fill="#C59D83" />
<rect x="7" y="11" width="1" height="1" fill="#C59D83" />
<rect x="8" y="11" width="1" height="1" fill="#C59D83" />
<rect x="9" y="11" width="1" height="1" fill="#6A2808" />
<rect x="10" y="11" width="1" height="1" fill="#6A2808" />
<rect x="11" y="11" width="1" height="1" fill="#8B6520" />
<rect x="12" y="11" width="1" height="1" fill="#6A2808" />
<rect x="1" y="12" width="1" height="1" fill="#6A2808" />
<rect x="2" y="12" width="1" height="1" fill="#B47D31" />
<rect x="3" y="12" width="1" height="1" fill="#6A2808" />
<rect x="4" y="12" width="1" height="1" fill="#39857B" />
<rect x="5" y="12" width="1" height="1" fill="#6A2808" />
<rect x="6" y="12" width="1" height="1" fill="#6A2808" />
<rect x="7" y="12" width="1" height="1" fill="#6A2808" />
<rect x="8" y="12" width="1" height="1" fill="#6A2808" />
<rect x="9" y="12" width="1" height="1" fill="#39857B" />
<rect x="10" y="12" width="1" height="1" fill="#6A2808" />
<rect x="11" y="12" width="1" height="1" fill="#B47D31" />
<rect x="12" y="12" width="1" height="1" fill="#6A2808" />
<rect x="0" y="13" width="1" height="1" fill="#6A2808" />
<rect x="1" y="13" width="1" height="1" fill="#8B6520" />
<rect x="2" y="13" width="1" height="1" fill="#B47D31" />
<rect x="3" y="13" width="1" height="1" fill="#8B5531" />
<rect x="4" y="13" width="1" height="1" fill="#6A2808" />
<rect x="5" y="13" width="1" height="1" fill="#F6D252" />
<rect x="6" y="13" width="1" height="1" fill="#F6D252" />
<rect x="7" y="13" width="1" height="1" fill="#F6D252" />
<rect x="8" y="13" width="1" height="1" fill="#F6D252" />
<rect x="9" y="13" width="1" height="1" fill="#6A2808" />
<rect x="10" y="13" width="1" height="1" fill="#8B5531" />
<rect x="11" y="13" width="1" height="1" fill="#B47D31" />
<rect x="12" y="13" width="1" height="1" fill="#8B6520" />
<rect x="13" y="13" width="1" height="1" fill="#6A2808" />
<rect x="0" y="14" width="1" height="1" fill="#6A2808" />
<rect x="1" y="14" width="1" height="1" fill="#8B6520" />
<rect x="2" y="14" width="1" height="1" fill="#B47D31" />
<rect x="3" y="14" width="1" height="1" fill="#B47D31" />
<rect x="4" y="14" width="1" height="1" fill="#734010" />
<rect x="5" y="14" width="1" height="1" fill="#6A2808" />
<rect x="6" y="14" width="1" height="1" fill="#6A2808" />
<rect x="7" y="14" width="1" height="1" fill="#6A2808" />
<rect x="8" y="14" width="1" height="1" fill="#6A2808" />
<rect x="9" y="14" width="1" height="1" fill="#734010" />
<rect x="10" y="14" width="1" height="1" fill="#B47D31" />
<rect x="11" y="14" width="1" height="1" fill="#B47D31" />
<rect x="12" y="14" width="1" height="1" fill="#8B6520" />
<rect x="13" y="14" width="1" height="1" fill="#6A2808" />
<rect x="0" y="15" width="1" height="1" fill="#6A2808" />
<rect x="1" y="15" width="1" height="1" fill="#8B6520" />
<rect x="2" y="15" width="1" height="1" fill="#B47D31" />
<rect x="3" y="15" width="1" height="1" fill="#D58920" />
<rect x="4" y="15" width="1" height="1" fill="#D58920" />
<rect x="5" y="15" width="1" height="1" fill="#CDAE94" />
<rect x="6" y="15" width="1" height="1" fill="#CDAE94" />
<rect x="7" y="15" width="1" height="1" fill="#CDAE94" />
<rect x="8" y="15" width="1" height="1" fill="#CDAE94" />
<rect x="9" y="15" width="1" height="1" fill="#D58920" />
<rect x="10" y="15" width="1" height="1" fill="#D58920" />
<rect x="11" y="15" width="1" height="1" fill="#B47D31" />
<rect x="12" y="15" width="1" height="1" fill="#8B6520" />
<rect x="13" y="15" width="1" height="1" fill="#6A2808" />
<rect x="0" y="16" width="1" height="1" fill="#6A2808" />
<rect x="1" y="16" width="1" height="1" fill="#B47D31" />
<rect x="2" y="16" width="1" height="1" fill="#6A2808" />
<rect x="3" y="16" width="1" height="1" fill="#C57110" />
<rect x="4" y="16" width="1" height="1" fill="#C57110" />
<rect x="5" y="16" width="1" height="1" fill="#C57110" />
<rect x="6" y="16" width="1" height="1" fill="#C57110" />
<rect x="7" y="16" width="1" height="1" fill="#C57110" />
<rect x="8" y="16" width="1" height="1" fill="#C57110" />
<rect x="9" y="16" width="1" height="1" fill="#C57110" />
<rect x="10" y="16" width="1" height="1" fill="#C57110" />
<rect x="11" y="16" width="1" height="1" fill="#6A2808" />
<rect x="12" y="16" width="1" height="1" fill="#B47D31" />
<rect x="13" y="16" width="1" height="1" fill="#6A2808" />
<rect x="0" y="17" width="1" height="1" fill="#6A2808" />
<rect x="1" y="17" width="1" height="1" fill="#B47D31" />
<rect x="2" y="17" width="1" height="1" fill="#6A2808" />
<rect x="3" y="17" width="1" height="1" fill="#D58920" />
<rect x="4" y="17" width="1" height="1" fill="#C57110" />
<rect x="5" y="17" width="1" height="1" fill="#6A2808" />
<rect x="6" y="17" width="1" height="1" fill="#8B5018" />
<rect x="7" y="17" width="1" height="1" fill="#8B5018" />
<rect x="8" y="17" width="1" height="1" fill="#6A2808" />
<rect x="9" y="17" width="1" height="1" fill="#C57110" />
<rect x="10" y="17" width="1" height="1" fill="#D58920" />
<rect x="11" y="17" width="1" height="1" fill="#6A2808" />
<rect x="12" y="17" width="1" height="1" fill="#B47D31" />
<rect x="13" y="17" width="1" height="1" fill="#6A2808" />
<rect x="0" y="18" width="1" height="1" fill="#6A2808" />
<rect x="1" y="18" width="1" height="1" fill="#B47D31" />
<rect x="2" y="18" width="1" height="1" fill="#6A2808" />
<rect x="3" y="18" width="1" height="1" fill="#D58920" />
<rect x="4" y="18" width="1" height="1" fill="#C57110" />
<rect x="5" y="18" width="1" height="1" fill="#6A2808" />
<rect x="6" y="18" width="1" height="1" fill="#8B5018" />
<rect x="7" y="18" width="1" height="1" fill="#8B5018" />
<rect x="8" y="18" width="1" height="1" fill="#6A2808" />
<rect x="9" y="18" width="1" height="1" fill="#C57110" />
<rect x="10" y="18" width="1" height="1" fill="#D58920" />
<rect x="11" y="18" width="1" height="1" fill="#6A2808" />
<rect x="12" y="18" width="1" height="1" fill="#B47D31" />
<rect x="13" y="18" width="1" height="1" fill="#6A2808" />
<rect x="1" y="19" width="1" height="1" fill="#6A2808" />
<rect x="2" y="19" width="1" height="1" fill="#6A2808" />
<rect x="3" y="19" width="1" height="1" fill="#D58920" />
<rect x="4" y="19" width="1" height="1" fill="#D58920" />
<rect x="5" y="19" width="1" height="1" fill="#6A2808" />
<rect x="6" y="19" width="1" height="1" fill="#6A2808" />
<rect x="7" y="19" width="1" height="1" fill="#6A2808" />
<rect x="8" y="19" width="1" height="1" fill="#6A2808" />
<rect x="9" y="19" width="1" height="1" fill="#D58920" />
<rect x="10" y="19" width="1" height="1" fill="#D58920" />
<rect x="11" y="19" width="1" height="1" fill="#6A2808" />
<rect x="12" y="19" width="1" height="1" fill="#6A2808" />
<rect x="1" y="20" width="1" height="1" fill="#6A2808" />
<rect x="2" y="20" width="1" height="1" fill="#6A2808" />
<rect x="3" y="20" width="1" height="1" fill="#D58920" />
<rect x="4" y="20" width="1" height="1" fill="#D58920" />
<rect x="5" y="20" width="1" height="1" fill="#6A2808" />
<rect x="6" y="20" width="1" height="1" fill="#734010" />
<rect x="7" y="20" width="1" height="1" fill="#734010" />
<rect x="8" y="20" width="1" height="1" fill="#6A2808" />
<rect x="9" y="20" width="1" height="1" fill="#D58920" />
<rect x="10" y="20" width="1" height="1" fill="#D58920" />
<rect x="11" y="20" width="1" height="1" fill="#6A2808" />
<rect x="12" y="20" width="1" height="1" fill="#6A2808" />
<rect x="2" y="21" width="1" height="1" fill="#6A2808" />
<rect x="3" y="21" width="1" height="1" fill="#D58920" />
<rect x="4" y="21" width="1" height="1" fill="#D58920" />
<rect x="5" y="21" width="1" height="1" fill="#6A2808" />
<rect x="6" y="21" width="1" height="1" fill="#6A2808" />
<rect x="7" y="21" width="1" height="1" fill="#6A2808" />
<rect x="8" y="21" width="1" height="1" fill="#6A2808" />
<rect x="9" y="21" width="1" height="1" fill="#D58920" />
<rect x="10" y="21" width="1" height="1" fill="#D58920" />
<rect x="11" y="21" width="1" height="1" fill="#6A2808" />
<rect x="2" y="22" width="1" height="1" fill="#6A2808" />
<rect x="3" y="22" width="1" height="1" fill="#F6EEDE" />
<rect x="4" y="22" width="1" height="1" fill="#F6EEDE" />
<rect x="5" y="22" width="1" height="1" fill="#6A2808" />
<rect x="8" y="22" width="1" height="1" fill="#6A2808" />
<rect x="9" y="22" width="1" height="1" fill="#F6EEDE" />
<rect x="10" y="22" width="1" height="1" fill="#F6EEDE" />
<rect x="11" y="22" width="1" height="1" fill="#6A2808" />
<rect x="3" y="23" width="1" height="1" fill="#6A2808" />
<rect x="4" y="23" width="1" height="1" fill="#6A2808" />
<rect x="9" y="23" width="1" height="1" fill="#6A2808" />
<rect x="10" y="23" width="1" height="1" fill="#6A2808" />
</svg>