<?xml version="1.0" encoding="UTF-8" ?>
<svg version="1.1" width="15" height="15" xmlns="http://www.w3.org/2000/svg" shape-rendering="crispEdges">
<rect x="10" y="1" width="1" height="1" fill="#C8C7A7" />
<rect x="11" y="1" width="1" height="1" fill="#E7E6D4" />
<rect x="12" y="1" width="1" height="1" fill="#C8C7A7" />
<rect x="9" y="2" width="1" height="1" fill="#C8C7A7" />
<rect x="10" y="2" width="1" height="1" fill="#E7E6D4" />
<rect x="11" y="2" width="1" height="1" fill="#FEFBEE" />
<rect x="12" y="2" width="1" height="1" fill="#7B7E6F" />
<rect x="13" y="2" width="1" height="1" fill="#7B7E6F" />
<rect x="9" y="3" width="1" height="1" fill="#C8C7A7" />
<rect x="10" y="3" width="1" height="1" fill="#FEFBEE" />
<rect x="11" y="3" width="1" height="1" fill="#FFFFFF" />
<rect x="12" y="3" width="1" height="1" fill="#FEFBEE" />
<rect x="13" y="3" width="1" height="1" fill="#E7E6D4" />
<rect x="14" y="3" width="1" height="1" fill="#7B7E6F" />
<rect x="9" y="4" width="1" height="1" fill="#C8C7A7" />
<rect x="10" y="4" width="1" height="1" fill="#FEFBEE" />
<rect x="11" y="4" width="1" height="1" fill="#FEFBEE" />
<rect x="12" y="4" width="1" height="1" fill="#E7E6D4" />
<rect x="13" y="4" width="1" height="1" fill="#C8C7A7" />
<rect x="14" y="4" width="1" height="1" fill="#7B7E6F" />
<rect x="8" y="5" width="1" height="1" fill="#C8C7A7" />
<rect x="9" y="5" width="1" height="1" fill="#FEFBEE" />
<rect x="10" y="5" width="1" height="1" fill="#FEFBEE" />
<rect x="11" y="5" width="1" height="1" fill="#7B7E6F" />
<rect x="12" y="5" width="1" height="1" fill="#7B7E6F" />
<rect x="13" y="5" width="1" height="1" fill="#7B7E6F" />
<rect x="7" y="6" width="1" height="1" fill="#C8C7A7" />
<rect x="8" y="6" width="1" height="1" fill="#FEFBEE" />
<rect x="9" y="6" width="1" height="1" fill="#FEFBEE" />
<rect x="10" y="6" width="1" height="1" fill="#7B7E6F" />
<rect x="6" y="7" width="1" height="1" fill="#C8C7A7" />
<rect x="7" y="7" width="1" height="1" fill="#FEFBEE" />
<rect x="8" y="7" width="1" height="1" fill="#FEFBEE" />
<rect x="9" y="7" width="1" height="1" fill="#7B7E6F" />
<rect x="5" y="8" width="1" height="1" fill="#C8C7A7" />
<rect x="6" y="8" width="1" height="1" fill="#FEFBEE" />
<rect x="7" y="8" width="1" height="1" fill="#FEFBEE" />
<rect x="8" y="8" width="1" height="1" fill="#7B7E6F" />
<rect x="3" y="9" width="1" height="1" fill="#C8C7A7" />
<rect x="4" y="9" width="1" height="1" fill="#C8C7A7" />
<rect x="5" y="9" width="1" height="1" fill="#FEFBEE" />
<rect x="6" y="9" width="1" height="1" fill="#FEFBEE" />
<rect x="7" y="9" width="1" height="1" fill="#7B7E6F" />
<rect x="1" y="10" width="1" height="1" fill="#E7E6D4" />
<rect x="2" y="10" width="1" height="1" fill="#E7E6D4" />
<rect x="3" y="10" width="1" height="1" fill="#FEFBEE" />
<rect x="4" y="10" width="1" height="1" fill="#FEFBEE" />
<rect x="5" y="10" width="1" height="1" fill="#FEFBEE" />
<rect x="6" y="10" width="1" height="1" fill="#7B7E6F" />
<rect x="0" y="11" width="1" height="1" fill="#E7E6D4" />
<rect x="1" y="11" width="1" height="1" fill="#FEFBEE" />
<rect x="2" y="11" width="1" height="1" fill="#FEFBEE" />
<rect x="3" y="11" width="1" height="1" fill="#FEFBEE" />
<rect x="4" y="11" width="1" height="1" fill="#FEFBEE" />
<rect x="5" y="11" width="1" height="1" fill="#7B7E6F" />
<rect x="0" y="12" width="1" height="1" fill="#C8C7A7" />
<rect x="1" y="12" width="1" height="1" fill="#E7E6D4" />
<rect x="2" y="12" width="1" height="1" fill="#C8C7A7" />
<rect x="3" y="12" width="1" height="1" fill="#FEFBEE" />
<rect x="4" y="12" width="1" height="1" fill="#E7E6D4" />
<rect x="5" y="12" width="1" height="1" fill="#7B7E6F" />
<rect x="1" y="13" width="1" height="1" fill="#C8C7A7" />
<rect x="2" y="13" width="1" height="1" fill="#7B7E6F" />
<rect x="3" y="13" width="1" height="1" fill="#FEFBEE" />
<rect x="4" y="13" width="1" height="1" fill="#C8C7A7" />
<rect x="5" y="13" width="1" height="1" fill="#7B7E6F" />
</svg>